# xmcd
#
# Track frame offsets: 
#        150
#        15069
#        30528
#        46642
#        58592
#        75050
#        92522
#        101467
#        117687
#        134049
#        145635
#        165995
#        185239
#        195504
#
# Disc length: 2828 seconds
#
# Revision: 0
# Processed by: cddbd v1.5.2PL0 Copyright (c) Steve Scherf et al.
# Submitted via: ExactAudioCopy v1.3
#
DISCID=a30b0a0e
DTITLE=Marty Stuart - Compadres (An Anthology of Duets)
DYEAR=2007
DGENRE=Country
TTITLE0=Farmers Blues (with Merle Haggard)
TTITLE1=Doin My Time (with Johnny Cash)
TTITLE2=Rawhide (live) (with Lester Flatt)
TTITLE3=The Whiskey Aint Workin (with Travis Tritt)
TTITLE4=Will You Visit Me On Sunday (with Loretta Lynn)
TTITLE5=Crying, Waiting, Hoping (with Steve Earle)
TTITLE6=Mr John Henry Steel Driving Man (with Earl Scruggs)
TTITLE7=Hearts Like Ours (with Connie Smith)
TTITLE8=The Weight (with Staple Singers)
TTITLE9=One Woman Man (with George Jones)
TTITLE10=Confessin The Blues (with B.B.King)
TTITLE11=I Can See For Miles (with Old Crow Medicine Show)
TTITLE12=Let Us Travel, Travel On (with Delbert Mccoury)
TTITLE13=Move Along Train (with Mavis Staples)
EXTD=
EXTT0=
EXTT1=
EXTT2=
EXTT3=
EXTT4=
EXTT5=
EXTT6=
EXTT7=
EXTT8=
EXTT9=
EXTT10=
EXTT11=
EXTT12=
EXTT13=
PLAYORDER=
